grf
version=1
nRows=16
nColumns=28
inDegrees=no
endheader
time	ground_force_1_vx	ground_force_1_vy	ground_force_1_vz	ground_force_1_px	ground_force_1_py	ground_force_1_pz	ground_moment_1_mx	ground_moment_1_my	ground_moment_1_mz	ground_force_2_vx	ground_force_2_vy	ground_force_2_vz	ground_force_2_px	ground_force_2_py	ground_force_2_pz	ground_moment_2_mx	ground_moment_2_my	ground_moment_2_mz	ground_force_3_vx	ground_force_3_vy	ground_force_3_vz	ground_force_3_px	ground_force_3_py	ground_force_3_pz	ground_moment_3_mx	ground_moment_3_my	ground_moment_3_mz
      1.36000000	      0.44491056	      0.15040724	      1.42641255	    237.76851665	  -1317.05142426	      2.16964634	     -0.00729386	     -0.02637469	    -14.45190848	      2.00931788	     -4.67398835	      2.47670414	    231.44835283	  -1708.47193676	      0.16732280	      0.03509093	      0.45382877	   -543.81095414	     33.31659737	    -59.61178824	   -299.64514776	    407.93418960	    -77.96171667	     -0.05391834	      0.29290170	     -2.15163450	  -1047.71721630
      1.37000000	      0.40407179	      0.31124239	      1.26736083	    257.22406103	  -1312.41634153	      2.15136814	     -0.00176680	     -0.00638879	     -3.50071152	      2.20429900	     -4.71136736	      2.73961222	    212.62936008	  -1744.23360817	      0.13626412	      0.05438052	      0.70329995	   -842.74564126	     26.47821468	    -52.01065901	   -264.35861427	    406.22897635	    -72.25013988	     -0.06612458	      0.33141243	     -2.43453148	  -1185.47111333
      1.38000000	      0.32323766	      0.39233786	      1.58448495	    262.88278666	  -1292.88001269	      2.11285845	      0.00786060	      0.02842401	     15.57482900	      2.16325794	     -4.28301772	      2.12790618	    135.21265001	  -1674.51023450	      0.18945512	      0.05842792	      0.75564464	   -905.46888687	     23.20041904	    -45.55923110	   -238.95189550	    402.97727830	    -66.44206426	     -0.07896133	      0.37457946	     -2.75163334	  -1339.88074207
      1.39000000	      0.60650250	      0.19098933	      1.50425200	    275.41712705	  -1364.88950703	      2.23794949	     -0.04270232	     -0.15441214	    -84.60953916	      1.89355578	     -4.86859496	      2.38667689	    204.39039505	  -1612.59801894	      0.24558687	      0.03318128	      0.42913140	   -514.21675112	     22.73061017	    -39.85831612	   -219.97749278	    398.84711335	    -61.34220680	     -0.09058924	      0.32299734	     -2.37271484	  -1155.37011032
      1.40000000	      0.24281510	      0.19029244	      1.50690176	    223.94520539	  -1238.59724060	      2.03344431	      0.00651611	      0.02356234	     12.91089597	      1.85296927	     -4.63483495	      2.30127636	    162.25145449	  -1618.41720009	      0.23801143	      0.05303943	      0.68595567	   -821.96244657	     22.89171679	    -33.88502772	   -205.15733541	    394.82481244	    -56.34410805	     -0.10197802	      0.38316068	     -2.81467040	  -1370.57601557
      1.41000000	      0.56604586	      0.23130814	      1.58404275	    255.53775610	  -1347.85756873	      2.21689934	     -0.01395765	     -0.05047103	    -27.65540731	      1.96954478	     -4.51737861	      2.65137186	    258.08531388	  -1679.81037692	      0.19296068	      0.02938028	      0.37997331	   -455.31192000	     22.41852848	    -27.24546102	   -192.06595240	    391.38531225	    -47.95118940	     -0.12017561	      0.26593100	     -1.95350968	   -951.24228812
      1.42000000	      0.52533446	      0.35220002	      1.50555722	    240.20560726	  -1285.93696746	      2.11163256	      0.00389782	      0.01409456	      7.72306254	      2.08716654	     -4.67202665	      2.38760637	    202.91000518	  -1674.85307608	      0.19353737	      0.05108721	      0.66070774	   -791.70852805	     20.04259611	    -18.87890497	   -181.72576580	    386.78561318	    -41.47578848	     -0.13475966	      0.16426491	     -1.20667799	   -587.57995907
      1.43000000	      0.48501595	      0.06815697	      0.47776532	   -272.93955469	  -1470.20847673	      2.70691115	     -0.03443317	     -0.12451080	    -68.22521266	      2.16548678	     -4.71045550	      1.60083560	    105.05874896	  -1504.71685047	      0.32920772	      0.05255877	      0.67973931	   -814.51355388	     16.48633710	    -11.03882736	   -173.89969251	    385.42678862	    -38.76535980	     -0.14070578	      0.07634529	     -0.56082689	   -273.08913035
      1.44000000	      0.36408407	      0.19052573	      1.58434029	    285.55003064	  -1286.74424649	      2.09022057	     -0.02096683	     -0.07581632	    -41.54325853	      1.89197436	     -4.55618733	      2.30040042	    214.95738248	  -1639.45233752	      0.22385789	      0.03543408	      0.45826674	   -549.12884851	     12.37525333	     -2.61438424	   -169.44556687	    385.88487353	    -35.87659837	     -0.14651019	      0.07401838	     -0.54373363	   -264.76573216
      1.45000000	      0.24244040	      0.27008848	      1.10952015	    219.16467430	  -1326.17151156	      2.19567980	      0.02698009	      0.09756035	     53.45782093	      2.08695496	     -4.59386899	      1.42398840	    126.94796828	  -1535.95656418	      0.30454958	      0.04871982	      0.63009041	   -755.02058703	      9.05610651	      5.60563648	   -170.17187858	    383.68569724	    -35.58083293	     -0.14773239	     -0.00179880	      0.01321384	      6.43434847
      1.46000000	      0.64675270	      0.19075701	      1.18905287	    194.61425180	  -1301.61935976	      2.16326277	     -0.02822347	     -0.10205642	    -55.92142524	      2.08781984	     -4.82846146	      2.12273476	    178.11994158	  -1622.87828996	      0.23531245	      0.05048267	      0.65288919	   -782.33976751	      7.00182982	     13.47412874	   -171.83314548	    383.53413106	    -32.83384284	     -0.15341610	     -0.04934465	      0.36248217	    176.50712163
      1.47000000	      0.36430492	      0.06985538	      1.50545820	    270.45903009	  -1297.84125122	      2.11808898	     -0.00570738	     -0.02063795	    -11.30848576	      1.81509983	     -4.86809675	      1.86034282	     84.31839904	  -1558.47749351	      0.28300431	      0.07647611	      0.98906073	  -1185.16518694	      4.43335730	     21.65440622	   -174.67351033	    384.14819068	    -30.19156623	     -0.15867072	     -0.11632031	      0.85448046	    416.08084256
      1.48000000	      0.44457711	      0.23035244	      1.11076383	    193.26383754	  -1181.87929432	      1.94541908	      0.01728946	      0.06251893	     34.25700601	      1.96994480	     -4.63369529	      1.07532025	    -34.16752411	  -1493.05155411	      0.32995885	      0.09383443	      1.21355481	  -1454.17047871	      1.11452090	     29.98637009	   -178.85156350	    384.24092861	    -29.36250526	     -0.16034738	     -0.10667509	      0.78362740	    381.57964245
      1.49000000	      0.32340797	      0.10849618	      0.71245403	    124.11874778	  -1673.10210154	      2.87679658	     -0.07456484	     -0.26962741	   -147.74130099	      1.65683779	     -4.36316699	      2.03569755	    148.28015986	  -1632.07422242	      0.22571264	      0.05136366	      0.66428299	   -795.99264948	     -2.04337324	     37.76326268	   -183.65285141	    384.90852679	    -31.65098580	     -0.15546103	     -0.09945610	      0.73059722	    355.75711872
      1.50000000	      0.36371659	      0.23037320	      1.03129210	    167.96942268	  -1256.98120594	      2.09524589	     -0.00575406	     -0.02080676	    -11.40098606	      2.00821514	     -4.47850003	      2.03788051	    129.72379223	  -1560.43683651	      0.28429908	      0.04880156	      0.63114760	   -756.28739605	     -2.95012048	     45.15962920	   -186.88514446	    385.32328278	    -29.56736269	     -0.15962409	     -0.11080505	      0.81396583	    396.35264186
      1.51000000	      0.40449279	      0.19103828	      1.58395225	    272.37002059	  -1346.60329810	      2.20611508	     -0.02128180	     -0.07695526	    -42.16734072	      1.81314630	     -4.47946099	      2.12110074	    180.76256070	  -1671.63801899	      0.19479132	      0.05087898	      0.65801466	   -788.48147525	     -2.54646771	     50.94225630	   -188.46582085	    386.25954266	    -27.95746724	     -0.16266850	     -0.12904179	      0.94793157	    461.58593578
